HIERARCHY
ROOT Hips
{
  OFFSET -213.699 104.721 0.752556
  CHANNELS 6 Xposition Yposition Zposition Zrotation Xrotation Yrotation
  JOINT RightUpLeg
  {
    OFFSET -8.9458 -8.66707 0.101652
    CHANNELS 3 Zrotation Xrotation Yrotation
    JOINT RightLeg
    {
      OFFSET 0 -44.4227 1.3727
      CHANNELS 3 Zrotation Xrotation Yrotation
      JOINT RightFoot
      {
        OFFSET 0.253549 -42.0924 -1.46059
        CHANNELS 3 Zrotation Xrotation Yrotation
        JOINT RightToes
        {
          OFFSET 0.04 -4.41509 8.4991
          CHANNELS 3 Zrotation Xrotation Yrotation
          End Site
          {
            OFFSET -0.08 -0.137448 9.77979
          }
        }
      }
    }
  }
  JOINT Spine
  {
    OFFSET 0 11.8905 0
    CHANNELS 3 Zrotation Xrotation Yrotation
    JOINT Spine1
    {
      OFFSET 0 25.6574 0.127663
      CHANNELS 3 Zrotation Xrotation Yrotation
      JOINT HEad
      {
        OFFSET 0 8.73416 0.011341
        CHANNELS 3 Zrotation Xrotation Yrotation
        End Site
        {
          OFFSET -0.29 12.7742 2.51395
        }
      }
      JOINT LeftShoulder1
      {
        OFFSET 8.99 -0.362252 -0.22
        CHANNELS 3 Zrotation Xrotation Yrotation
        JOINT LeftArm
        {
          OFFSET 10.2827 -0.00337999 0.322123
          CHANNELS 3 Zrotation Xrotation Yrotation
          JOINT LeftForeArm
          {
            OFFSET 26.2597 0.099144 -1.42434
            CHANNELS 3 Zrotation Xrotation Yrotation
            JOINT LeftHand
            {
              OFFSET 22.0902 0.085362 1.02216
              CHANNELS 3 Zrotation Xrotation Yrotation
              End Site
              {
                OFFSET 13.419 -0.6 1.50291
              }
            }
          }
        }
      }
      JOINT RightShoulder
      {
        OFFSET -8.99 -0.362252 -0.22
        CHANNELS 3 Zrotation Xrotation Yrotation
        JOINT RightArm
        {
          OFFSET -10.2827 -0.00338 0.322123
          CHANNELS 3 Zrotation Xrotation Yrotation
          JOINT RightForeArm
          {
            OFFSET -26.364 0.099144 -1.42434
            CHANNELS 3 Zrotation Xrotation Yrotation
            JOINT RightHand
            {
              OFFSET -22.0324 0.085362 1.02216
              CHANNELS 3 Zrotation Xrotation Yrotation
              End Site
              {
                OFFSET -13.3284 -0.6 1.50291
              }
            }
          }
        }
      }
    }
  }
  JOINT LeftUpLeg
  {
    OFFSET 8.9458 -8.66707 0.101652
    CHANNELS 3 Zrotation Xrotation Yrotation
    JOINT LeftLeg
    {
      OFFSET 0 -44.4227 1.3727
      CHANNELS 3 Zrotation Xrotation Yrotation
      JOINT LeftFoot
      {
        OFFSET -0.253549 -42.0924 -1.46059
        CHANNELS 3 Zrotation Xrotation Yrotation
        JOINT LeftToes
        {
          OFFSET -0.04 -4.41509 8.4991
          CHANNELS 3 Zrotation Xrotation Yrotation
          End Site
          {
            OFFSET 0.08 -0.047448 9.77979
          }
        }
      }
    }
  }
}
MOTION
Frames:	8
Frame Time:	0.0333333
-113.227 102.102 55.8947 -10.0837 -1.44857 -95.7074 -2.24633 -14.8314 3.5114 -1.18491 53.942 -10.877 1.3711 -3.15495 -0.195596 0.0462048 0.000530889 0.662642 -8.75886 9.39226 -0.980714 3.95098 4.98865 -2.69041 0.567015 12.6749 -7.97595 -30.1826 -3.33277 12.686 -78.533 -40.043 -37.6546 -158.861 78.57 157.11 7.59489 9.0441 -9.1967 32.567 -1.79885 -8.72149 49.9105 -25.8061 13.0026 18.9809 69.8361 -6.72171 -0.0289516 9.9358 0.727947 -8.1135 -0.134404 0.77144 -0.916569 19.1582 12.7443 5.97619 -8.0623 0.0546304 -1.36932e-009 8.7523e-006 -1.47815e-008 
-115.648 102.324 55.9196 -9.61006 -1.42521 -95.2629 -1.97483 -15.8605 3.91648 -1.05919 44.4559 -13.0531 1.60161 -2.10012 -0.215781 0.0462048 0.000530889 0.662642 -9.30021 9.32212 -1.40913 4.75494 4.51799 -3.29752 0.765868 12.0686 -7.94856 -29.4727 -3.06462 12.1128 -78.3854 -38.1452 -38.522 -158.022 80.516 154.789 9.49985 8.73212 -10.1886 32.6738 -1.9286 -9.04074 48.5596 -26.7239 10.7504 18.332 69.9075 -6.40698 0.0936331 9.94273 0.785996 -8.26985 1.71544 0.332541 -0.789956 17.6683 12.6583 5.8442 -8.63695 0.08803 -1.36932e-009 8.7523e-006 -1.47815e-008 
-118.132 102.363 55.9162 -9.33235 -1.49339 -95.4765 -1.78274 -15.9544 4.86643 -0.970302 33.7597 -15.5579 1.49177 0.753394 -0.222092 0.0462048 0.000530889 0.662642 -9.55334 9.16012 -1.51578 4.911 4.08421 -3.41343 0.972343 11.8436 -8.10396 -29.3831 -3.02738 12.0237 -78.1226 -36.2492 -40.2422 -158.985 81.7191 154.523 9.47428 8.72468 -10.303 32.6811 -1.98172 -9.17642 47.2911 -27.1032 8.66028 17.5975 68.9075 -5.79269 -0.119953 9.93096 0.731431 -8.5214 3.78135 0.483976 -0.770262 16.2025 12.7614 5.82092 -9.43346 0.131692 -1.36932e-009 8.7523e-006 -1.47815e-008 
-120.677 102.192 55.8647 -9.10485 -1.86255 -95.5932 -2.05628 -15.4989 4.26109 -1.26239 22.9614 -16.1728 0.370815 2.81475 -0.138002 0.0462048 0.000530889 0.662642 -10.1915 8.68539 -1.64502 5.14558 4.0679 -3.57902 1.25649 11.4772 -8.20198 -29.92 -3.33307 12.7501 -77.6638 -34.2557 -42.6821 -159.274 82.157 153.85 8.4723 8.88032 -10.0318 32.6681 -2.03382 -9.31249 46.4253 -27.3227 7.38238 17.3674 68.1622 -5.71412 -0.284327 9.92231 0.717309 -9.05891 5.6795 0.623708 -0.718179 15.1604 12.8871 5.14467 -10.7611 0.191906 -1.36932e-009 8.7523e-006 -1.47815e-008 
-123.202 101.865 55.747 -8.76461 -2.18267 -95.3673 -2.46099 -14.7971 1.02749 -1.3781 12.7268 -13.7378 0.909048 4.13413 -0.19089 0.0462048 0.000530889 0.662642 -10.6993 8.37102 -1.93207 5.36839 3.82797 -3.89482 1.43444 11.0041 -8.35568 -29.4975 -3.15168 12.3508 -77.9995 -33.658 -43.4646 -165.037 82.0866 159.342 9.59421 8.69136 -10.5484 32.7064 -2.08249 -9.43214 45.9239 -27.7672 6.69978 17.1279 68.8035 -5.66488 -0.204636 9.92582 0.726436 -9.46785 6.83724 0.713866 -0.608386 15.4737 12.4188 5.08515 -12.3822 0.273524 -1.36932e-009 8.7523e-006 -1.47815e-008 
-125.819 101.433 55.5135 -8.68539 -2.65122 -94.9475 -3.09362 -13.865 -0.0480268 -0.429319 4.65922 -12.4775 3.34518 3.92661 -0.429409 0.0462048 0.000530889 0.662642 -11.6108 8.06098 -2.18045 5.80877 3.81959 -4.22901 1.50219 10.7538 -8.5648 -29.482 -3.14774 12.3421 -78.5912 -33.103 -45.0286 -164.157 81.4416 158.847 9.67609 8.67814 -10.5652 32.6765 -2.03307 -9.30908 45.7773 -27.7802 6.57556 17.7022 68.6666 -6.37766 -0.26268 9.92138 0.810112 -9.80286 7.90169 0.935328 -0.654459 16.7198 11.6048 4.57958 -14.2285 0.336647 -1.36932e-009 8.7523e-006 -1.47815e-008 
-128.524 100.9 55.1677 -8.57295 -3.31553 -94.3344 -3.6449 -14.4383 -0.0574655 -0.0852741 2.0149 -11.2729 5.9576 2.14656 -0.615452 0.0462048 0.000530889 0.662642 -12.6725 7.72764 -2.36671 6.17431 3.49159 -4.44347 1.53768 10.8399 -9.07986 -29.2585 -3.02672 12.0572 -79.7246 -33.0776 -45.9735 -163.122 80.5946 158.681 9.36266 8.74573 -10.2453 32.4548 -1.91185 -9.02869 45.9765 -27.9317 6.41358 17.7304 68.9823 -6.55488 -0.375932 9.91607 0.752604 -10.1387 8.70316 1.20441 -0.767533 18.574 10.3711 3.37533 -15.9963 0.334115 -1.36932e-009 8.7523e-006 -1.47815e-008 
-131.211 100.52 54.8074 -8.49944 -3.68737 -93.8219 -3.77578 -15.0815 -0.0243626 -0.0270933 2.58565 -9.98265 7.56063 1.48801 -0.716957 0.0462048 0.000530889 0.662642 -12.8958 7.73585 -2.38791 6.13517 3.06057 -4.44993 1.69099 10.6852 -9.76204 -29.4849 -3.12547 12.2798 -80.7465 -32.8482 -47.3503 -159.772 78.7572 156.454 9.29669 8.77311 -9.98529 32.3621 -1.86708 -8.92588 46.2595 -27.8211 6.55573 17.3464 69.0809 -6.01448 -0.420013 9.91503 0.685853 -10.1749 9.46838 1.45361 -0.713625 20.4848 9.27286 2.32227 -17.2533 0.287968 -1.36932e-009 8.7523e-006 -1.47815e-008 
